
<!-- <svg xmlns="http://www.w3.org/2000/svg" viewBox="6 6 34 34" height="24px" width="24px"><path d="M15.333 16.958Q14.625 16.958 14.271 16.333Q13.917 15.708 14.292 15.125L18.958 7.458Q19.292 6.875 20 6.875Q20.708 6.875 21.083 7.458L25.75 15.125Q26.125 15.708 25.75 16.333Q25.375 16.958 24.708 16.958ZM29.25 35.375Q26.625 35.375 24.875 33.604Q23.125 31.833 23.125 29.25Q23.125 26.625 24.875 24.875Q26.625 23.125 29.25 23.125Q31.833 23.125 33.604 24.875Q35.375 26.625 35.375 29.25Q35.375 31.833 33.604 33.604Q31.833 35.375 29.25 35.375ZM7.5 34.458Q6.958 34.458 6.625 34.125Q6.292 33.792 6.292 33.25V25.125Q6.292 24.625 6.646 24.271Q7 23.917 7.5 23.917H15.625Q16.167 23.917 16.5 24.271Q16.833 24.625 16.833 25.125V33.25Q16.833 33.792 16.479 34.125Q16.125 34.458 15.625 34.458ZM29.25 33.958Q31.208 33.958 32.583 32.583Q33.958 31.208 33.958 29.25Q33.958 27.25 32.583 25.896Q31.208 24.542 29.25 24.542Q27.25 24.542 25.896 25.896Q24.542 27.25 24.542 29.25Q24.542 31.208 25.896 32.583Q27.25 33.958 29.25 33.958ZM7.708 33.083H15.417V25.333H7.708ZM15.625 15.542H24.417L20 8.542ZM20 15.542ZM15.417 25.333ZM29.25 29.25Q29.25 29.25 29.25 29.25Q29.25 29.25 29.25 29.25Q29.25 29.25 29.25 29.25Q29.25 29.25 29.25 29.25Q29.25 29.25 29.25 29.25Q29.25 29.25 29.25 29.25Q29.25 29.25 29.25 29.25Q29.25 29.25 29.25 29.25Z"/></svg> -->
<svg xmlns="http://www.w3.org/2000/svg" height="24px"  width="24px"><path d="M14 18.458Q13.042 18.458 12.562 17.625Q12.083 16.792 12.583 15.958L18.75 5.958Q19.25 5.208 20.146 5.208Q21.042 5.208 21.5 5.958L27.708 15.958Q28.167 16.792 27.708 17.625Q27.25 18.458 26.25 18.458ZM29.5 37.25Q26.417 37.25 24.292 35.083Q22.167 32.917 22.167 29.792Q22.167 26.708 24.292 24.583Q26.417 22.458 29.5 22.458Q32.625 22.458 34.792 24.583Q36.958 26.708 36.958 29.792Q36.958 32.917 34.792 35.083Q32.625 37.25 29.5 37.25ZM6.667 36.208Q5.958 36.208 5.5 35.729Q5.042 35.25 5.042 34.542V24.875Q5.042 24.208 5.5 23.729Q5.958 23.25 6.667 23.25H16.333Q17.042 23.25 17.5 23.729Q17.958 24.208 17.958 24.875V34.583Q17.958 35.25 17.5 35.729Q17.042 36.208 16.333 36.208ZM29.5 34.417Q31.458 34.417 32.812 33.104Q34.167 31.792 34.167 29.833Q34.167 27.917 32.812 26.583Q31.458 25.25 29.5 25.25Q27.583 25.25 26.292 26.583Q25 27.917 25 29.833Q25 31.792 26.292 33.104Q27.583 34.417 29.5 34.417ZM7.833 33.375H15.167V26.083H7.833ZM16.125 15.625H24.208L20.125 9.125ZM20.167 15.625ZM15.167 26.083ZM29.583 29.833Q29.583 29.833 29.583 29.833Q29.583 29.833 29.583 29.833Q29.583 29.833 29.583 29.833Q29.583 29.833 29.583 29.833Q29.583 29.833 29.583 29.833Q29.583 29.833 29.583 29.833Q29.583 29.833 29.583 29.833Q29.583 29.833 29.583 29.833Z"/></svg>